<svg width="28" height="30" viewBox="0 0 28 30" fill="none" xmlns="http://www.w3.org/2000/svg">
<g filter="url(#filter0_dd_91_3158)">
<path d="M14 8.87578C12.2797 8.87578 10.8758 10.2797 10.8758 12C10.8758 13.7203 12.2797 15.1242 14 15.1242C15.7203 15.1242 17.1242 13.7203 17.1242 12C17.1242 10.2797 15.7203 8.87578 14 8.87578ZM23.3703 12C23.3703 10.7062 23.382 9.42422 23.3094 8.13281C23.2367 6.63281 22.8945 5.30156 21.7977 4.20469C20.6984 3.10547 19.3695 2.76562 17.8695 2.69297C16.5758 2.62031 15.2938 2.63203 14.0023 2.63203C12.7086 2.63203 11.4266 2.62031 10.1352 2.69297C8.63516 2.76562 7.30391 3.10781 6.20704 4.20469C5.10782 5.3039 4.76797 6.63281 4.69532 8.13281C4.62266 9.42656 4.63438 10.7086 4.63438 12C4.63438 13.2914 4.62266 14.5758 4.69532 15.8672C4.76797 17.3672 5.11016 18.6984 6.20704 19.7953C7.30625 20.8945 8.63516 21.2344 10.1352 21.307C11.4289 21.3797 12.7109 21.368 14.0023 21.368C15.2961 21.368 16.5781 21.3797 17.8695 21.307C19.3695 21.2344 20.7008 20.8922 21.7977 19.7953C22.8969 18.6961 23.2367 17.3672 23.3094 15.8672C23.3844 14.5758 23.3703 13.2937 23.3703 12ZM14 16.807C11.3398 16.807 9.19297 14.6602 9.19297 12C9.19297 9.33984 11.3398 7.19297 14 7.19297C16.6602 7.19297 18.807 9.33984 18.807 12C18.807 14.6602 16.6602 16.807 14 16.807ZM19.0039 8.11875C18.3828 8.11875 17.8813 7.61719 17.8813 6.99609C17.8813 6.375 18.3828 5.87344 19.0039 5.87344C19.625 5.87344 20.1266 6.375 20.1266 6.99609C20.1268 7.14357 20.0978 7.28964 20.0415 7.42593C19.9851 7.56222 19.9024 7.68606 19.7982 7.79034C19.6939 7.89463 19.57 7.97731 19.4338 8.03367C19.2975 8.09002 19.1514 8.11893 19.0039 8.11875Z" fill="#70737C"/>
</g>
<defs>
<filter id="filter0_dd_91_3158" x="-2" y="0" width="32" height="32" filterUnits="userSpaceOnUse" color-interpolation-filters="sRGB">
<feFlood flood-opacity="0" result="BackgroundImageFix"/>
<feColorMatrix in="SourceAlpha" type="matrix" values="0 0 0 0 0 0 0 0 0 0 0 0 0 0 0 0 0 0 127 0" result="hardAlpha"/>
<feOffset dy="4"/>
<feGaussianBlur stdDeviation="2"/>
<feComposite in2="hardAlpha" operator="out"/>
<feColorMatrix type="matrix" values="0 0 0 0 0 0 0 0 0 0 0 0 0 0 0 0 0 0 0.25 0"/>
<feBlend mode="normal" in2="BackgroundImageFix" result="effect1_dropShadow_91_3158"/>
<feColorMatrix in="SourceAlpha" type="matrix" values="0 0 0 0 0 0 0 0 0 0 0 0 0 0 0 0 0 0 127 0" result="hardAlpha"/>
<feOffset dy="4"/>
<feGaussianBlur stdDeviation="2"/>
<feComposite in2="hardAlpha" operator="out"/>
<feColorMatrix type="matrix" values="0 0 0 0 0 0 0 0 0 0 0 0 0 0 0 0 0 0 0.25 0"/>
<feBlend mode="normal" in2="effect1_dropShadow_91_3158" result="effect2_dropShadow_91_3158"/>
<feBlend mode="normal" in="SourceGraphic" in2="effect2_dropShadow_91_3158" result="shape"/>
</filter>
</defs>
</svg>
